<svg width="176" height="74" viewBox="0 0 176 74" fill="none" xmlns="http://www.w3.org/2000/svg">
<g filter="url(#filter0_d)">
<path d="M60.0088 1.98242L39.3105 65H26.6982L6.08789 1.98242H20.4141L32.9824 44.0381L45.5947 1.98242H60.0088ZM78.6855 14.5947V39.8193H91.2979C93.0264 39.8193 94.6523 39.4971 96.1758 38.8525C97.6992 38.1787 99.0322 37.2705 100.175 36.1279C101.317 34.9854 102.211 33.6523 102.855 32.1289C103.529 30.5762 103.866 28.9355 103.866 27.207C103.866 25.4785 103.529 23.8525 102.855 22.3291C102.211 20.7764 101.317 19.4287 100.175 18.2861C99.0322 17.1436 97.6992 16.25 96.1758 15.6055C94.6523 14.9316 93.0264 14.5947 91.2979 14.5947H78.6855ZM78.6855 65H66.0732V1.98242H91.2979C93.6123 1.98242 95.8389 2.29004 97.9775 2.90527C100.116 3.49121 102.108 4.34082 103.954 5.4541C105.829 6.53809 107.528 7.85645 109.052 9.40918C110.604 10.9326 111.923 12.6318 113.007 14.5068C114.12 16.3818 114.97 18.3887 115.556 20.5273C116.171 22.666 116.479 24.8926 116.479 27.207C116.479 30.6641 115.819 33.9307 114.501 37.0068C113.183 40.0537 111.381 42.7197 109.096 45.0049C106.811 47.29 104.13 49.0918 101.054 50.4102C98.0068 51.7285 94.7549 52.3877 91.2979 52.3877H78.6855V65ZM120.214 20.8789C120.214 18.2715 120.712 15.8252 121.708 13.54C122.704 11.2549 124.052 9.2627 125.751 7.56348C127.479 5.83496 129.486 4.47266 131.771 3.47656C134.057 2.48047 136.503 1.98242 139.11 1.98242H168.026V14.5947H139.11C138.231 14.5947 137.411 14.7559 136.649 15.0781C135.888 15.4004 135.214 15.8545 134.628 16.4404C134.071 16.9971 133.632 17.6562 133.31 18.418C132.987 19.1797 132.826 20 132.826 20.8789C132.826 21.7578 132.987 22.5928 133.31 23.3838C133.632 24.1455 134.071 24.8193 134.628 25.4053C135.214 25.9619 135.888 26.4014 136.649 26.7236C137.411 27.0459 138.231 27.207 139.11 27.207H151.723C154.33 27.207 156.776 27.7051 159.062 28.7012C161.376 29.668 163.383 31.0156 165.082 32.7441C166.811 34.4434 168.158 36.4502 169.125 38.7646C170.121 41.0498 170.619 43.4961 170.619 46.1035C170.619 48.7109 170.121 51.1572 169.125 53.4424C168.158 55.7275 166.811 57.7344 165.082 59.4629C163.383 61.1621 161.376 62.5098 159.062 63.5059C156.776 64.502 154.33 65 151.723 65H123.729V52.3877H151.723C152.602 52.3877 153.422 52.2266 154.184 51.9043C154.945 51.582 155.604 51.1426 156.161 50.5859C156.747 50 157.201 49.3262 157.523 48.5645C157.846 47.8027 158.007 46.9824 158.007 46.1035C158.007 45.2246 157.846 44.4043 157.523 43.6426C157.201 42.8809 156.747 42.2217 156.161 41.665C155.604 41.0791 154.945 40.625 154.184 40.3027C153.422 39.9805 152.602 39.8193 151.723 39.8193H139.11C136.503 39.8193 134.057 39.3213 131.771 38.3252C129.486 37.3291 127.479 35.9814 125.751 34.2822C124.052 32.5537 122.704 30.5469 121.708 28.2617C120.712 25.9473 120.214 23.4863 120.214 20.8789Z" fill="#E5E5E5"/>
<path d="M60.0088 1.98242L60.9589 2.29447L61.3898 0.982422H60.0088V1.98242ZM39.3105 65V66H40.0347L40.2606 65.3121L39.3105 65ZM26.6982 65L25.7478 65.3109L25.9732 66H26.6982V65ZM6.08789 1.98242V0.982422H4.70871L5.13743 2.29328L6.08789 1.98242ZM20.4141 1.98242L21.3722 1.69608L21.1589 0.982422H20.4141V1.98242ZM32.9824 44.0381L32.0243 44.3244L32.9807 47.5249L33.9403 44.3253L32.9824 44.0381ZM45.5947 1.98242V0.982422H44.8506L44.6369 1.69517L45.5947 1.98242ZM59.0587 1.67037L38.3605 64.6879L40.2606 65.3121L60.9589 2.29447L59.0587 1.67037ZM39.3105 64H26.6982V66H39.3105V64ZM27.6487 64.6891L7.03835 1.67157L5.13743 2.29328L25.7478 65.3109L27.6487 64.6891ZM6.08789 2.98242H20.4141V0.982422H6.08789V2.98242ZM19.4559 2.26876L32.0243 44.3244L33.9406 43.7517L21.3722 1.69608L19.4559 2.26876ZM33.9403 44.3253L46.5526 2.26968L44.6369 1.69517L32.0246 43.7508L33.9403 44.3253ZM45.5947 2.98242H60.0088V0.982422H45.5947V2.98242ZM78.6855 14.5947V13.5947H77.6855V14.5947H78.6855ZM78.6855 39.8193H77.6855V40.8193H78.6855V39.8193ZM96.1758 38.8525L96.5654 39.7735L96.5729 39.7704L96.5803 39.7671L96.1758 38.8525ZM102.855 32.1289L101.938 31.7308L101.935 31.7393L102.855 32.1289ZM102.855 22.3291L101.932 22.7125L101.936 22.7231L101.941 22.7336L102.855 22.3291ZM96.1758 15.6055L95.7713 16.52L95.7787 16.5233L95.7861 16.5264L96.1758 15.6055ZM78.6855 65V66H79.6855V65H78.6855ZM66.0732 65H65.0732V66H66.0732V65ZM66.0732 1.98242V0.982422H65.0732V1.98242H66.0732ZM97.9775 2.90527L97.7011 3.86638L97.7133 3.86973L97.9775 2.90527ZM103.954 5.4541L103.438 6.31039L103.446 6.31519L103.454 6.31984L103.954 5.4541ZM109.052 9.40918L108.338 10.1095L108.345 10.1163L108.351 10.123L109.052 9.40918ZM113.007 14.5068L112.141 15.0074L112.147 15.0174L113.007 14.5068ZM115.556 20.5273L114.591 20.7916L114.595 20.8038L115.556 20.5273ZM114.501 37.0068L115.419 37.404L115.42 37.4008L114.501 37.0068ZM101.054 50.4102L100.66 49.491L100.657 49.4924L101.054 50.4102ZM78.6855 52.3877V51.3877H77.6855V52.3877H78.6855ZM77.6855 14.5947V39.8193H79.6855V14.5947H77.6855ZM78.6855 40.8193H91.2979V38.8193H78.6855V40.8193ZM91.2979 40.8193C93.1541 40.8193 94.9132 40.4725 96.5654 39.7735L95.7861 37.9316C94.3915 38.5216 92.8986 38.8193 91.2979 38.8193V40.8193ZM96.5803 39.7671C98.213 39.0449 99.6494 38.0675 100.882 36.835L99.4677 35.4208C98.415 36.4735 97.1855 37.3125 95.7713 37.938L96.5803 39.7671ZM100.882 36.835C102.118 35.5992 103.083 34.1577 103.776 32.5185L101.935 31.7393C101.339 33.147 100.517 34.3715 99.4677 35.4208L100.882 36.835ZM103.773 32.527C104.502 30.8459 104.866 29.0695 104.866 27.207H102.866C102.866 28.8016 102.556 30.3064 101.938 31.7308L103.773 32.527ZM104.866 27.207C104.866 25.3446 104.502 23.5803 103.77 21.9246L101.941 22.7336C102.556 24.1248 102.866 25.6125 102.866 27.207H104.866ZM103.779 21.9457C103.086 20.2769 102.121 18.818 100.882 17.579L99.4677 18.9932C100.514 20.0394 101.336 21.2758 101.932 22.7125L103.779 21.9457ZM100.882 17.579C99.6461 16.3432 98.2046 15.378 96.5654 14.6845L95.7861 16.5264C97.1938 17.122 98.4184 17.9439 99.4677 18.9932L100.882 17.579ZM96.5803 14.6909C94.9246 13.9586 93.1603 13.5947 91.2979 13.5947V15.5947C92.8924 15.5947 94.3801 15.9047 95.7713 16.52L96.5803 14.6909ZM91.2979 13.5947H78.6855V15.5947H91.2979V13.5947ZM78.6855 64H66.0732V66H78.6855V64ZM67.0732 65V1.98242H65.0732V65H67.0732ZM66.0732 2.98242H91.2979V0.982422H66.0732V2.98242ZM91.2979 2.98242C93.5225 2.98242 95.6558 3.27794 97.7011 3.8663L98.254 1.94425C96.0219 1.30214 93.7021 0.982422 91.2979 0.982422V2.98242ZM97.7133 3.86973C99.7659 4.43208 101.673 5.24595 103.438 6.31039L104.471 4.59781C102.544 3.43569 100.467 2.55034 98.2418 1.94082L97.7133 3.86973ZM103.454 6.31984C105.25 7.35838 106.878 8.62102 108.338 10.1095L109.766 8.70884C108.179 7.09187 106.408 5.71779 104.455 4.58837L103.454 6.31984ZM108.351 10.123C109.84 11.5834 111.103 13.2109 112.141 15.0073L113.873 14.0063C112.743 12.0527 111.369 10.2818 109.752 8.69537L108.351 10.123ZM112.147 15.0174C113.214 16.814 114.029 18.7378 114.591 20.7916L116.52 20.2631C115.911 18.0395 115.026 15.9496 113.867 13.9963L112.147 15.0174ZM114.595 20.8038C115.183 22.8491 115.479 24.9823 115.479 27.207H117.479C117.479 24.8028 117.159 22.483 116.517 20.2509L114.595 20.8038ZM115.479 27.207C115.479 30.5332 114.845 33.6653 113.582 36.6129L115.42 37.4008C116.794 34.196 117.479 30.7949 117.479 27.207H115.479ZM113.583 36.6097C112.314 39.5441 110.582 42.1042 108.389 44.2978L109.803 45.712C112.18 43.3353 114.052 40.5633 115.419 37.4039L113.583 36.6097ZM108.389 44.2978C106.197 46.4898 103.623 48.2209 100.66 49.491L101.448 51.3293C104.636 49.9626 107.424 48.0903 109.803 45.712L108.389 44.2978ZM100.657 49.4924C97.7403 50.7543 94.624 51.3877 91.2979 51.3877V53.3877C94.8857 53.3877 98.2734 52.7028 101.451 51.3279L100.657 49.4924ZM91.2979 51.3877H78.6855V53.3877H91.2979V51.3877ZM77.6855 52.3877V65H79.6855V52.3877H77.6855ZM168.026 1.98242H169.026V0.982422H168.026V1.98242ZM168.026 14.5947V15.5947H169.026V14.5947H168.026ZM133.31 23.3838L132.383 23.7611L132.389 23.7734L133.31 23.3838ZM134.628 25.4053L133.903 26.094L133.921 26.1126L133.939 26.1303L134.628 25.4053ZM159.062 28.7012L158.662 29.6179L158.669 29.6209L158.676 29.6239L159.062 28.7012ZM165.082 32.7441L164.369 33.4452L164.375 33.4513L164.381 33.4573L165.082 32.7441ZM169.125 38.7646L168.202 39.1501L168.205 39.1572L168.208 39.1642L169.125 38.7646ZM169.125 53.4424L168.208 53.0428L168.204 53.0527L169.125 53.4424ZM159.062 63.5059L158.666 62.5873L158.662 62.5892L159.062 63.5059ZM123.729 65H122.729V66H123.729V65ZM123.729 52.3877V51.3877H122.729V52.3877H123.729ZM156.161 41.665L155.436 42.3538L155.454 42.3724L155.472 42.39L156.161 41.665ZM125.751 34.2822L125.038 34.9833L125.044 34.9894L125.05 34.9954L125.751 34.2822ZM121.708 28.2617L120.789 28.657L120.791 28.6613L121.708 28.2617ZM121.214 20.8789C121.214 18.4025 121.686 16.0929 122.625 13.9396L120.791 13.1405C119.738 15.5574 119.214 18.1404 119.214 20.8789H121.214ZM122.625 13.9396C123.573 11.7648 124.851 9.87801 126.458 8.27058L125.044 6.85637C123.253 8.64738 121.836 10.7449 120.791 13.1405L122.625 13.9396ZM126.458 8.27058C128.096 6.63233 129.998 5.34036 132.171 4.39326L131.372 2.55987C128.974 3.60496 126.863 5.03759 125.044 6.85637L126.458 8.27058ZM132.171 4.39326C134.324 3.45463 136.634 2.98242 139.11 2.98242V0.982422C136.372 0.982422 133.789 1.50631 131.372 2.55987L132.171 4.39326ZM139.11 2.98242H168.026V0.982422H139.11V2.98242ZM167.026 1.98242V14.5947H169.026V1.98242H167.026ZM168.026 13.5947H139.11V15.5947H168.026V13.5947ZM139.11 13.5947C138.106 13.5947 137.152 13.7795 136.26 14.1572L137.039 15.9991C137.67 15.7322 138.357 15.5947 139.11 15.5947V13.5947ZM136.26 14.1572C135.379 14.5297 134.598 15.0565 133.921 15.7333L135.335 17.1475C135.83 16.6525 136.396 16.2711 137.039 15.9991L136.26 14.1572ZM133.921 15.7333C133.269 16.3856 132.758 17.1541 132.389 18.0283L134.231 18.8076C134.505 18.1584 134.874 17.6085 135.335 17.1475L133.921 15.7333ZM132.389 18.0283C132.011 18.9209 131.826 19.8746 131.826 20.8789H133.826C133.826 20.1254 133.964 19.4384 134.231 18.8076L132.389 18.0283ZM131.826 20.8789C131.826 21.8833 132.011 22.8468 132.383 23.7611L134.236 23.0065C133.964 22.3388 133.826 21.6323 133.826 20.8789H131.826ZM132.389 23.7734C132.757 24.6432 133.262 25.4189 133.903 26.094L135.353 24.7165C134.881 24.2198 134.507 23.6478 134.231 22.9941L132.389 23.7734ZM133.939 26.1303C134.614 26.7716 135.39 27.2766 136.26 27.6446L137.039 25.8027C136.385 25.5261 135.813 25.1522 135.317 24.6803L133.939 26.1303ZM136.26 27.6446C137.152 28.0222 138.106 28.207 139.11 28.207V26.207C138.357 26.207 137.67 26.0696 137.039 25.8027L136.26 27.6446ZM139.11 28.207H151.723V26.207H139.11V28.207ZM151.723 28.207C154.199 28.207 156.509 28.6792 158.662 29.6179L159.461 27.7845C157.044 26.7309 154.461 26.207 151.723 26.207V28.207ZM158.676 29.6239C160.872 30.5412 162.766 31.815 164.369 33.4452L165.795 32.0431C163.999 30.2163 161.88 28.7947 159.447 27.7784L158.676 29.6239ZM164.381 33.4573C166.011 35.0598 167.285 36.9542 168.202 39.1501L170.048 38.3792C169.031 35.9462 167.61 33.8269 165.783 32.031L164.381 33.4573ZM168.208 39.1642C169.147 41.3176 169.619 43.6271 169.619 46.1035H171.619C171.619 43.365 171.095 40.7821 170.042 38.3651L168.208 39.1642ZM169.619 46.1035C169.619 48.5799 169.147 50.8895 168.208 53.0428L170.042 53.842C171.095 51.425 171.619 48.842 171.619 46.1035H169.619ZM168.204 53.0527C167.287 55.2211 166.011 57.1197 164.375 58.7558L165.789 60.17C167.61 58.349 169.03 56.234 170.046 53.832L168.204 53.0527ZM164.375 58.7558C162.77 60.3611 160.87 61.6388 158.666 62.5873L159.457 64.4244C161.882 63.3807 163.996 61.9631 165.789 60.17L164.375 58.7558ZM158.662 62.5892C156.509 63.5278 154.199 64 151.723 64V66C154.461 66 157.044 65.4761 159.461 64.4226L158.662 62.5892ZM151.723 64H123.729V66H151.723V64ZM124.729 65V52.3877H122.729V65H124.729ZM123.729 53.3877H151.723V51.3877H123.729V53.3877ZM151.723 53.3877C152.727 53.3877 153.681 53.2029 154.573 52.8253L153.794 50.9833C153.163 51.2502 152.476 51.3877 151.723 51.3877V53.3877ZM154.573 52.8253C155.447 52.4554 156.216 51.9453 156.868 51.293L155.454 49.8788C154.993 50.3398 154.443 50.7087 153.794 50.9833L154.573 52.8253ZM156.868 51.293C157.545 50.6162 158.072 49.8346 158.444 48.9541L156.602 48.1748C156.33 48.8177 155.949 49.3838 155.454 49.8788L156.868 51.293ZM158.444 48.9541C158.822 48.0615 159.007 47.1078 159.007 46.1035H157.007C157.007 46.8571 156.869 47.544 156.602 48.1748L158.444 48.9541ZM159.007 46.1035C159.007 45.0993 158.822 44.1455 158.444 43.2529L156.602 44.0322C156.869 44.6631 157.007 45.35 157.007 46.1035H159.007ZM158.444 43.2529C158.07 42.3677 157.538 41.5936 156.85 40.94L155.472 42.39C155.956 42.8498 156.332 43.394 156.602 44.0322L158.444 43.2529ZM156.886 40.9763C156.233 40.2884 155.458 39.7563 154.573 39.3818L153.794 41.2237C154.432 41.4937 154.976 41.8698 155.436 42.3538L156.886 40.9763ZM154.573 39.3818C153.681 39.0041 152.727 38.8193 151.723 38.8193V40.8193C152.476 40.8193 153.163 40.9568 153.794 41.2237L154.573 39.3818ZM151.723 38.8193H139.11V40.8193H151.723V38.8193ZM139.11 38.8193C136.634 38.8193 134.324 38.3471 132.171 37.4085L131.372 39.2419C133.789 40.2955 136.372 40.8193 139.11 40.8193V38.8193ZM132.171 37.4085C129.995 36.4598 128.091 35.1802 126.452 33.5691L125.05 34.9954C126.868 36.7827 128.978 38.1984 131.372 39.2419L132.171 37.4085ZM126.464 33.5812C124.853 31.9424 123.573 30.0385 122.625 27.8621L120.791 28.6613C121.835 31.0553 123.25 33.1651 125.038 34.9833L126.464 33.5812ZM122.627 27.8664C121.686 25.6812 121.214 23.3552 121.214 20.8789H119.214C119.214 23.6174 119.738 26.2133 120.789 28.657L122.627 27.8664Z" fill="black"/>
</g>
<defs>
<filter id="filter0_d" x="0.70871" y="0.982422" width="174.91" height="73.0176" filterUnits="userSpaceOnUse" color-interpolation-filters="sRGB">
<feFlood flood-opacity="0" result="BackgroundImageFix"/>
<feColorMatrix in="SourceAlpha" type="matrix" values="0 0 0 0 0 0 0 0 0 0 0 0 0 0 0 0 0 0 127 0"/>
<feOffset dy="4"/>
<feGaussianBlur stdDeviation="2"/>
<feColorMatrix type="matrix" values="0 0 0 0 0 0 0 0 0 0 0 0 0 0 0 0 0 0 0.25 0"/>
<feBlend mode="normal" in2="BackgroundImageFix" result="effect1_dropShadow"/>
<feBlend mode="normal" in="SourceGraphic" in2="effect1_dropShadow" result="shape"/>
</filter>
</defs>
</svg>
